<svg xmlns="http://www.w3.org/2000/svg" width="176" height="49" viewBox="0 0 176 49" fill="none"><g clip-path="url(#clip0_1699_56095)"><path d="M60.4303 23.6515C61.4035 24.1556 62.4421 24.5211 63.516 24.7372C64.8665 25.0532 66.2489 25.2117 67.6356 25.2095C68.9182 25.2122 70.1945 25.0294 71.425 24.6666C72.501 24.3567 73.5092 23.8466 74.397 23.163C75.2086 22.5228 75.8718 21.7134 76.3405 20.7907C76.8178 19.8227 77.059 18.7547 77.0442 17.6748C77.0616 16.318 76.623 14.9948 75.7991 13.9184C74.9727 12.8327 73.5922 11.9714 71.6578 11.3345L67.8684 10.1185C66.793 9.8353 65.7882 9.3306 64.9181 8.63655C64.6714 8.39614 64.4757 8.10827 64.3427 7.79019C64.2097 7.47211 64.1421 7.13038 64.144 6.78547C64.1109 6.30823 64.2115 5.83123 64.4344 5.40825C64.6572 4.98527 64.9935 4.63313 65.4053 4.39154C66.505 3.83389 67.7314 3.57557 68.9619 3.64242C70.7317 3.6144 72.487 3.96606 74.1101 4.67382C74.4291 4.84815 74.7781 4.96049 75.1387 5.00495C75.5447 5.00495 75.745 4.71725 75.745 4.15812V2.86616C75.7628 2.55223 75.6814 2.24067 75.5122 1.9759C75.2954 1.70458 75.0266 1.47942 74.7218 1.31364C74.3597 1.12767 73.9832 0.971544 73.5958 0.846797C73.1249 0.689374 72.6214 0.548236 72.0747 0.423383C71.5027 0.292872 70.9245 0.191411 70.3424 0.119392C69.7448 0.0394458 69.1425 -0.000450645 68.5397 -3.28333e-05C67.4004 -0.0068693 66.2662 0.152214 65.1725 0.472239C64.1662 0.753445 63.2221 1.22313 62.39 1.85648C61.5971 2.45121 60.937 3.20561 60.452 4.07127C59.9536 4.98363 59.7034 6.01145 59.7266 7.05146C59.7278 8.46359 60.1983 9.83504 61.0637 10.9491C61.9515 12.1397 63.3771 13.0444 65.3403 13.6633L69.2272 14.8846C70.2234 15.1432 71.1486 15.6238 71.9339 16.2906C72.1724 16.5428 72.358 16.8404 72.4798 17.1658C72.6016 17.4912 72.6571 17.8378 72.6431 18.1851C72.6597 18.6928 72.5404 19.1956 72.2976 19.6414C72.0549 20.0872 71.6975 20.4597 71.2626 20.7202C70.0693 21.3797 68.7145 21.6882 67.3541 21.6104C66.2849 21.6096 65.2184 21.5005 64.171 21.2847C63.1583 21.0774 62.1709 20.7607 61.2261 20.3402L60.544 20.0633C60.3868 20.0028 60.2198 19.9715 60.0514 19.9711C59.6454 19.9711 59.4451 20.2479 59.4451 20.8125V22.175C59.4336 22.4964 59.5223 22.8135 59.6989 23.082C59.8755 23.3505 60.1312 23.5572 60.4303 23.6732" fill="black"></path><path d="M15.1956 10.6288C14.258 10.4909 13.3119 10.4201 12.3643 10.417C9.62513 10.417 7.44171 11.1137 5.81406 12.507C5.01932 13.1821 4.38767 14.0292 3.96665 14.9845C3.54563 15.9398 3.34621 16.9785 3.38342 18.0222C3.33786 18.9721 3.48894 19.9212 3.82714 20.8097C4.16534 21.6982 4.68334 22.5068 5.3485 23.1846C6.65856 24.4657 8.43778 25.1063 10.6862 25.1063C12.1915 25.1301 13.6824 24.8084 15.0448 24.1658C16.4071 23.5232 17.6049 22.5767 18.5465 21.3987C18.828 21.9958 19.0879 22.517 19.3639 22.9729C19.6299 23.4261 19.9518 23.8438 20.3221 24.216C20.4225 24.3293 20.5449 24.4209 20.6817 24.4853C20.8184 24.5497 20.9669 24.5855 21.1179 24.5906C21.3699 24.5817 21.6141 24.5008 21.8216 24.3572L23.5052 23.2335C23.6489 23.1507 23.7706 23.0345 23.8601 22.8947C23.9496 22.7549 24.0042 22.5955 24.0195 22.4301C24.0094 22.2153 23.9461 22.0063 23.8355 21.8221C23.4912 21.2082 23.2014 20.5652 22.9693 19.9005C22.7406 19.124 22.6382 18.3157 22.6661 17.5065V8.77767C22.6661 5.83548 21.9191 3.63698 20.4412 2.18217C18.9633 0.727357 16.6518 0.0108078 13.447 0.0108078C12.0416 0.00218375 10.6408 0.173661 9.27867 0.521077C8.11801 0.813073 6.98985 1.2223 5.9115 1.74247C5.62005 1.85874 5.36163 2.04518 5.15903 2.28531C5.01229 2.57527 4.94858 2.90034 4.97498 3.22442V4.53266C4.97498 5.0755 5.15903 5.38492 5.51632 5.38492C5.65945 5.37538 5.80107 5.34989 5.93857 5.30893C6.25863 5.21573 6.57161 5.09963 6.8751 4.96151C7.81639 4.59098 8.78463 4.29335 9.7713 4.07125C10.7125 3.84191 11.6772 3.7235 12.6458 3.7184C14.7084 3.7184 16.1592 4.13639 16.9766 4.96151C17.794 5.78662 18.2434 7.21972 18.2434 9.25537V11.2259C17.1823 10.9762 16.1592 10.7808 15.1739 10.6396L15.1956 10.6288ZM18.2434 15.3569C18.258 16.1394 18.1706 16.9204 17.9835 17.6803C17.8148 18.3141 17.5038 18.9009 17.074 19.3956C16.3983 20.1812 15.5255 20.7715 14.546 21.1056C13.659 21.4213 12.7262 21.5882 11.7851 21.5996C11.2767 21.6333 10.7667 21.5657 10.2845 21.4008C9.8023 21.2359 9.35742 20.9769 8.97552 20.6387C8.62834 20.2571 8.36239 19.8086 8.19392 19.3204C8.02545 18.8323 7.958 18.3148 7.99568 17.7997C7.96191 17.2168 8.06252 16.634 8.28972 16.0964C8.51691 15.5589 8.86458 15.0811 9.30574 14.7001C10.1755 13.9763 11.5 13.6144 13.2792 13.6144C14.1175 13.6153 14.9548 13.6715 15.7856 13.7827C16.612 13.8862 17.4323 14.0329 18.2434 14.2224V15.3569Z" fill="black"></path><path d="M31.6957 23.1847C31.769 23.5814 31.9573 23.9477 32.2371 24.2378C32.5412 24.4376 32.9034 24.5294 33.2656 24.4983H35.5555C35.9382 24.533 36.3209 24.4332 36.6382 24.2161C36.9235 23.917 37.1121 23.5386 37.1796 23.1304L41.2992 5.86264L45.4622 23.1304C45.5273 23.5394 45.7163 23.9184 46.0035 24.2161C46.3207 24.4336 46.7035 24.5334 47.0862 24.4983H49.3761C49.74 24.5281 50.1035 24.4365 50.4101 24.2378C50.6898 23.9477 50.8781 23.5814 50.9514 23.1847L57.3826 2.44275C57.48 2.1659 57.5396 1.94333 57.5775 1.79134C57.6134 1.64889 57.6369 1.50359 57.6478 1.35707C57.6605 1.26785 57.6523 1.17691 57.6238 1.09143C57.5954 1.00596 57.5475 0.928286 57.484 0.864568C57.4204 0.80085 57.343 0.752831 57.2577 0.724308C57.1725 0.695786 57.0818 0.687543 56.9928 0.700231H54.5135C54.1431 0.666033 53.7719 0.755745 53.4578 0.955366C53.1878 1.2544 53.0011 1.6195 52.9165 2.0139L48.2826 19.9873L44.0709 2.0139C44.0149 1.61557 43.8349 1.24513 43.5566 0.955366C43.2321 0.75661 42.8527 0.667205 42.4739 0.700231H40.3085C39.9297 0.66643 39.55 0.755892 39.2259 0.955366C38.9358 1.24007 38.7458 1.61156 38.6845 2.0139L34.5161 19.7539L30.0392 2.01933C29.9571 1.62404 29.7701 1.25832 29.4979 0.960794C29.1759 0.756018 28.7944 0.666128 28.4152 0.705659H25.8438C25.7537 0.689349 25.6611 0.694674 25.5735 0.721196C25.4858 0.747718 25.4057 0.794684 25.3397 0.858243C25.2737 0.921802 25.2236 1.00014 25.1936 1.08685C25.1636 1.17356 25.1545 1.26616 25.1671 1.35707C25.2042 1.72651 25.2823 2.09066 25.3999 2.44275L31.6957 23.1847Z" fill="black"></path><path d="M71.4144 36.1803C61.8023 40.2397 51.4854 42.3557 41.0557 42.4067C27.0968 42.4175 13.3778 38.7663 1.2614 31.8158C0.265324 31.273 -0.465494 32.261 0.357352 33.0101C11.2644 42.8668 25.4474 48.287 40.13 48.2096C51.1247 48.2096 63.8897 44.7463 72.6919 38.2322C74.1482 37.1465 72.9031 35.518 71.4144 36.1694" fill="black"></path><path d="M65.8546 32.5053C65.0805 33.0481 65.2158 33.8081 66.0766 33.7049C68.9132 33.3629 75.2307 32.6193 76.3621 34.0469C77.4935 35.4746 75.1062 41.4513 74.0452 44.1112C73.7258 44.92 74.4187 45.2457 75.1279 44.654C79.8484 40.6913 81.0827 32.3913 80.1028 31.1916C79.123 29.9919 70.8999 28.9822 65.8438 32.527" fill="black"></path><path d="M101.275 18.9396C101.232 18.946 101.187 18.9422 101.146 18.9283C101.104 18.9145 101.066 18.8911 101.035 18.86C101.004 18.8288 100.981 18.7909 100.967 18.7491C100.953 18.7073 100.949 18.6629 100.956 18.6194V4.14183C100.949 4.09809 100.953 4.05352 100.967 4.01157C100.981 3.96962 101.004 3.93142 101.035 3.89992C101.066 3.86843 101.104 3.84449 101.145 3.82995C101.187 3.81542 101.231 3.81069 101.275 3.81612H101.676C101.722 3.80882 101.769 3.81189 101.813 3.82511C101.858 3.83833 101.899 3.86137 101.934 3.89256C101.969 3.92374 101.996 3.9623 102.014 4.00541C102.032 4.04853 102.04 4.09513 102.038 4.14183L102.125 5.0158C102.699 4.53727 103.341 4.14754 104.03 3.85955C104.64 3.63158 105.286 3.51929 105.936 3.52842C106.555 3.50374 107.171 3.6244 107.735 3.88075C108.298 4.13711 108.795 4.52208 109.184 5.00494C110.032 6.18386 110.451 7.61931 110.37 9.07081C110.446 10.5687 110.004 12.047 109.119 13.2561C108.716 13.7626 108.2 14.167 107.612 14.4366C107.024 14.7063 106.382 14.8337 105.736 14.8086C104.404 14.7982 103.127 14.28 102.163 13.3593V18.6194C102.169 18.6629 102.165 18.7073 102.152 18.7491C102.138 18.7909 102.114 18.8288 102.083 18.86C102.052 18.8911 102.014 18.9145 101.973 18.9283C101.931 18.9422 101.887 18.946 101.843 18.9396H101.275ZM105.606 13.6741C106.103 13.7078 106.601 13.6214 107.058 13.4221C107.515 13.2228 107.917 12.9164 108.231 12.5287C108.82 11.7687 109.115 10.636 109.119 9.13053C109.119 6.11234 107.977 4.60505 105.692 4.60867C104.396 4.65347 103.152 5.13543 102.163 5.97662V12.2139C102.67 12.6616 103.244 13.0278 103.863 13.2995C104.414 13.5334 105.007 13.6534 105.606 13.6524" fill="black"></path><path d="M115.653 14.7815C115.228 14.8043 114.802 14.7416 114.402 14.5971C114.001 14.4526 113.633 14.2293 113.32 13.9401C113.026 13.6431 112.798 13.2877 112.65 12.8969C112.502 12.5061 112.437 12.0886 112.459 11.6711C112.439 11.2061 112.526 10.7428 112.714 10.3172C112.902 9.89164 113.185 9.51527 113.542 9.21743C114.366 8.57813 115.392 8.2582 116.433 8.31631C117.465 8.33099 118.49 8.49743 119.475 8.8103V7.01892C119.502 6.67989 119.457 6.33901 119.344 6.0183C119.232 5.69758 119.053 5.40416 118.82 5.15698C118.228 4.73394 117.502 4.54103 116.779 4.61414C115.723 4.63385 114.677 4.81696 113.677 5.15698C113.573 5.19527 113.463 5.21724 113.352 5.22212C113.212 5.22212 113.141 5.12984 113.141 4.94528V4.61414C113.136 4.52099 113.159 4.42844 113.206 4.34815C113.26 4.27484 113.333 4.21835 113.417 4.1853C114.558 3.74129 115.772 3.5184 116.996 3.52846C117.984 3.4488 118.968 3.72818 119.767 4.31558C120.085 4.6216 120.331 4.99467 120.487 5.40776C120.644 5.82086 120.707 6.26365 120.671 6.70408V14.2278C120.678 14.2714 120.674 14.3158 120.66 14.3576C120.646 14.3994 120.623 14.4373 120.592 14.4684C120.561 14.4995 120.523 14.523 120.481 14.5368C120.44 14.5506 120.395 14.5545 120.352 14.5481H119.903C119.858 14.5537 119.813 14.5494 119.77 14.5357C119.728 14.522 119.688 14.4991 119.655 14.4686C119.622 14.4381 119.596 14.4008 119.579 14.3592C119.562 14.3176 119.554 14.2728 119.556 14.2278L119.48 13.2996C118.415 14.223 117.061 14.7434 115.653 14.7707V14.7815ZM115.821 13.685C116.418 13.6753 117.01 13.5633 117.569 13.3539C118.231 13.1134 118.864 12.8022 119.459 12.4256V9.74941C118.559 9.50037 117.631 9.37079 116.698 9.36399C114.713 9.36399 113.719 10.1312 113.715 11.6656C113.698 11.9393 113.737 12.2136 113.83 12.4714C113.923 12.7292 114.068 12.9649 114.256 13.1639C114.696 13.5313 115.261 13.7141 115.832 13.6741" fill="black"></path><path d="M124.266 14.5481C124.222 14.5545 124.178 14.5506 124.136 14.5368C124.095 14.5229 124.057 14.4995 124.026 14.4684C123.995 14.4373 123.971 14.3993 123.958 14.3576C123.944 14.3158 123.94 14.2714 123.946 14.2278V4.14185C123.94 4.09811 123.944 4.05354 123.958 4.01159C123.972 3.96964 123.995 3.93144 124.026 3.89994C124.057 3.86845 124.094 3.84451 124.136 3.82997C124.178 3.81544 124.222 3.81071 124.266 3.81614H124.672C124.717 3.80972 124.764 3.81346 124.808 3.82708C124.852 3.8407 124.892 3.86388 124.927 3.89497C124.961 3.92606 124.988 3.96429 125.005 4.00696C125.023 4.04962 125.031 4.09568 125.029 4.14185L125.143 5.37409C125.584 4.85367 126.121 4.42254 126.723 4.10385C127.274 3.85203 127.873 3.72595 128.477 3.73472C128.658 3.72515 128.838 3.72515 129.019 3.73472C129.063 3.73196 129.108 3.7391 129.149 3.75563C129.191 3.77215 129.228 3.79767 129.259 3.83033C129.289 3.863 129.312 3.90203 129.326 3.94462C129.34 3.98721 129.344 4.03231 129.338 4.0767V4.61954C129.337 4.67824 129.313 4.73429 129.273 4.77697C129.252 4.80122 129.227 4.82061 129.198 4.83375C129.169 4.84688 129.137 4.85344 129.105 4.85297H128.786H128.337C127.739 4.84074 127.147 4.96512 126.604 5.21667C126.045 5.50436 125.549 5.90331 125.148 6.3892V14.2278C125.155 14.2714 125.151 14.3158 125.137 14.3576C125.123 14.3993 125.1 14.4373 125.069 14.4684C125.038 14.4995 125 14.5229 124.958 14.5368C124.916 14.5506 124.872 14.5545 124.829 14.5481H124.266Z" fill="black"></path><path d="M134.985 14.673C134.638 14.6971 134.289 14.6504 133.961 14.5356C133.632 14.4208 133.331 14.2404 133.074 14.0053C132.839 13.7403 132.66 13.4308 132.546 13.0952C132.433 12.7596 132.388 12.4046 132.413 12.0511V4.88562H130.73C130.686 4.89201 130.642 4.88813 130.6 4.8743C130.559 4.86046 130.521 4.83705 130.49 4.80593C130.459 4.77482 130.435 4.73686 130.421 4.69509C130.408 4.65331 130.404 4.60888 130.41 4.56534V4.35364C130.402 4.26436 130.423 4.1748 130.47 4.0985C130.504 4.06395 130.544 4.03655 130.589 4.01791C130.633 3.99926 130.681 3.98975 130.73 3.98993L132.451 3.83794L132.603 1.02603C132.604 0.936429 132.637 0.850187 132.695 0.781749C132.725 0.754935 132.76 0.734404 132.798 0.721355C132.836 0.708307 132.876 0.703002 132.917 0.705751H133.301C133.344 0.699361 133.389 0.703238 133.43 0.717074C133.472 0.730909 133.51 0.75432 133.541 0.785436C133.572 0.816552 133.595 0.854512 133.609 0.896286C133.623 0.938059 133.627 0.982488 133.62 1.02603V3.81622H136.706C136.749 3.81076 136.793 3.81534 136.834 3.82959C136.875 3.84384 136.912 3.86738 136.942 3.89838C136.973 3.92938 136.995 3.967 137.009 4.0083C137.022 4.0496 137.026 4.09348 137.02 4.1365V4.56534C137.027 4.60858 137.024 4.65294 137.011 4.69479C136.998 4.73664 136.975 4.77477 136.945 4.80605C136.914 4.83733 136.876 4.86085 136.835 4.87468C136.793 4.88852 136.749 4.89227 136.706 4.88562H133.62V11.9914C133.576 12.4348 133.708 12.8777 133.988 13.2236C134.342 13.4999 134.787 13.6301 135.234 13.5873C135.597 13.5908 135.96 13.5544 136.316 13.4788L136.69 13.4082C136.755 13.3877 136.822 13.3767 136.89 13.3756C137.047 13.3756 137.123 13.4625 137.123 13.6308V13.951C137.123 14.1899 137.047 14.3419 136.89 14.3962C136.271 14.5934 135.623 14.687 134.974 14.673" fill="black"></path><path d="M139.705 14.5481C139.662 14.5545 139.617 14.5506 139.576 14.5368C139.534 14.5229 139.496 14.4995 139.465 14.4684C139.434 14.4373 139.411 14.3993 139.397 14.3576C139.383 14.3158 139.379 14.2714 139.386 14.2278V4.14186C139.379 4.09812 139.383 4.05355 139.397 4.0116C139.411 3.96965 139.434 3.93145 139.465 3.89995C139.496 3.86846 139.534 3.84452 139.575 3.82999C139.617 3.81545 139.661 3.81072 139.705 3.81615H140.133C140.179 3.80984 140.225 3.81361 140.27 3.8272C140.314 3.84079 140.355 3.86388 140.389 3.89487C140.424 3.92585 140.451 3.96399 140.469 4.00664C140.488 4.04929 140.497 4.09543 140.495 4.14186L140.582 5.05926C141.246 4.57383 141.975 4.18459 142.747 3.90301C143.465 3.64319 144.22 3.50558 144.983 3.49588C145.413 3.46667 145.845 3.52468 146.252 3.66644C146.66 3.80821 147.034 4.03082 147.354 4.32099C147.645 4.64927 147.867 5.03267 148.007 5.44851C148.148 5.86436 148.204 6.30421 148.172 6.74206V14.2278C148.178 14.2714 148.174 14.3158 148.16 14.3576C148.147 14.3993 148.123 14.4373 148.092 14.4684C148.061 14.4995 148.023 14.5229 147.982 14.5368C147.94 14.5506 147.896 14.5545 147.852 14.5481H147.284C147.24 14.5543 147.196 14.5503 147.154 14.5365C147.112 14.5226 147.074 14.4993 147.043 14.4684C147.011 14.4374 146.987 14.3996 146.973 14.3579C146.958 14.3162 146.954 14.2717 146.959 14.2278V7.25233C147.018 6.53826 146.827 5.82587 146.418 5.2384C146.202 5.01919 145.941 4.8498 145.653 4.74199C145.365 4.63419 145.057 4.59055 144.75 4.61413C143.261 4.63828 141.814 5.11321 140.598 5.97666V14.2278C140.604 14.2708 140.601 14.3147 140.587 14.356C140.574 14.3973 140.551 14.4349 140.52 14.4659C140.49 14.4969 140.453 14.5205 140.412 14.5347C140.371 14.549 140.327 14.5536 140.284 14.5481H139.705Z" fill="black"></path><path d="M156 14.8629C154.311 14.8629 153.047 14.3852 152.21 13.4298C151.36 12.4636 150.933 11.0413 150.933 9.15223C150.933 7.36086 151.36 5.97119 152.216 4.98322C152.67 4.48952 153.229 4.103 153.85 3.85145C154.472 3.5999 155.141 3.48958 155.81 3.52841C156.353 3.48976 156.898 3.56649 157.409 3.75358C157.92 3.94068 158.386 4.23391 158.777 4.61409C159.513 5.50121 159.883 6.63755 159.811 7.7897C159.821 8.21871 159.79 8.64772 159.719 9.0708C159.713 9.16058 159.672 9.24453 159.606 9.30448C159.539 9.36442 159.451 9.39554 159.361 9.39108H152.151C152.151 10.8857 152.475 11.9877 153.125 12.697C153.775 13.4063 154.762 13.7682 156.086 13.7827C157.082 13.786 158.07 13.6018 158.999 13.2398C159.121 13.1858 159.25 13.151 159.383 13.1367C159.411 13.1365 159.439 13.1427 159.464 13.1549C159.49 13.1672 159.512 13.1851 159.529 13.2072C159.573 13.2585 159.596 13.3243 159.594 13.3918V13.7121C159.605 13.8012 159.589 13.8917 159.547 13.9713C159.506 14.0509 159.441 14.1158 159.361 14.1572C158.308 14.6459 157.16 14.8926 156 14.8792V14.8629ZM158.614 8.41397C158.614 8.21855 158.641 7.9797 158.641 7.7137C158.7 6.87007 158.432 6.03629 157.894 5.38492C157.602 5.11191 157.256 4.90251 156.878 4.76986C156.501 4.63721 156.101 4.58418 155.702 4.61409C153.461 4.61409 152.277 5.88072 152.151 8.41397H158.614Z" fill="black"></path><path d="M162.804 14.5481C162.761 14.5545 162.717 14.5506 162.675 14.5368C162.633 14.5229 162.595 14.4995 162.564 14.4684C162.533 14.4373 162.51 14.3993 162.496 14.3576C162.482 14.3158 162.479 14.2714 162.485 14.2278V4.14185C162.479 4.09811 162.483 4.05354 162.497 4.01159C162.51 3.96964 162.534 3.93144 162.564 3.89994C162.595 3.86845 162.633 3.84451 162.675 3.82997C162.716 3.81544 162.761 3.81071 162.804 3.81614H163.21C163.256 3.80983 163.303 3.8136 163.347 3.82719C163.392 3.84078 163.432 3.86387 163.467 3.89486C163.501 3.92584 163.529 3.96398 163.547 4.00663C163.565 4.04928 163.574 4.09542 163.573 4.14185L163.681 5.37409C164.123 4.85367 164.659 4.42254 165.262 4.10385C165.812 3.85203 166.411 3.72595 167.016 3.73472C167.196 3.72515 167.377 3.72515 167.557 3.73472C167.602 3.73196 167.647 3.7391 167.688 3.75563C167.729 3.77215 167.767 3.79767 167.797 3.83033C167.828 3.863 167.851 3.90203 167.865 3.94462C167.878 3.98721 167.882 4.03231 167.877 4.0767V4.61954C167.875 4.67824 167.852 4.73429 167.812 4.77697C167.792 4.80184 167.766 4.82166 167.737 4.83485C167.708 4.84804 167.676 4.85424 167.644 4.85297H167.325H166.881C166.281 4.8401 165.687 4.9645 165.143 5.21667C164.582 5.50294 164.087 5.9021 163.687 6.3892V14.2278C163.693 14.2714 163.689 14.3158 163.675 14.3576C163.662 14.3993 163.638 14.4373 163.607 14.4684C163.576 14.4995 163.538 14.5229 163.497 14.5368C163.455 14.5506 163.411 14.5545 163.367 14.5481H162.804Z" fill="black"></path><path d="M101.275 38.2376C101.231 38.2438 101.187 38.2398 101.145 38.226C101.103 38.2121 101.065 38.1888 101.034 38.1579C101.002 38.1269 100.978 38.0891 100.964 38.0474C100.949 38.0057 100.945 37.9612 100.95 37.9173V27.8314C100.945 27.7875 100.949 27.743 100.964 27.7013C100.978 27.6596 101.002 27.6218 101.034 27.5908C101.065 27.5599 101.103 27.5366 101.145 27.5227C101.187 27.5089 101.231 27.5049 101.275 27.5111H101.703C101.748 27.5048 101.794 27.5084 101.837 27.5217C101.881 27.535 101.921 27.5577 101.955 27.5882C101.989 27.6187 102.016 27.6562 102.034 27.6982C102.052 27.7402 102.061 27.7857 102.06 27.8314L102.147 28.7488C102.82 28.2641 103.558 27.8767 104.339 27.598C105.054 27.3356 105.808 27.1979 106.569 27.1908C107 27.1616 107.431 27.2196 107.839 27.3614C108.246 27.5032 108.621 27.7258 108.94 28.0159C109.232 28.3434 109.455 28.7266 109.596 29.1427C109.736 29.5588 109.791 29.999 109.758 30.437V37.9173C109.765 37.9606 109.762 38.0049 109.749 38.0468C109.736 38.0886 109.713 38.1268 109.683 38.158C109.652 38.1893 109.614 38.2128 109.573 38.2267C109.531 38.2405 109.487 38.2443 109.444 38.2376H108.87C108.826 38.245 108.781 38.2418 108.739 38.2284C108.697 38.215 108.658 38.1917 108.626 38.1605C108.595 38.1292 108.571 38.0909 108.557 38.0487C108.543 38.0064 108.539 37.9614 108.545 37.9173V30.9473C108.604 30.2316 108.412 29.5178 108.004 28.9279C107.784 28.7049 107.517 28.5334 107.224 28.4254C106.93 28.3175 106.616 28.276 106.304 28.3036C104.816 28.3272 103.371 28.8022 102.157 29.6662V37.9173C102.164 37.9609 102.16 38.0053 102.146 38.0471C102.132 38.0889 102.109 38.1268 102.078 38.1579C102.047 38.189 102.009 38.2125 101.967 38.2263C101.926 38.2401 101.881 38.244 101.838 38.2376H101.275Z" fill="black"></path><path d="M117.564 38.5579C115.88 38.5579 114.608 38.0802 113.775 37.1194C112.941 36.1585 112.497 34.7363 112.497 32.8418C112.497 31.0504 112.93 29.6607 113.785 28.6728C114.238 28.1718 114.797 27.7787 115.421 27.5222C116.045 27.2658 116.718 27.1526 117.391 27.1908C117.934 27.1529 118.478 27.2299 118.989 27.417C119.5 27.604 119.967 27.8969 120.357 28.2765C121.096 29.1645 121.467 30.3034 121.391 31.4575C121.4 31.8863 121.371 32.315 121.305 32.7386C121.297 32.8284 121.254 32.9115 121.187 32.9711C121.119 33.0307 121.032 33.0621 120.942 33.0589H113.72C113.72 34.5535 114.045 35.6555 114.695 36.3648C115.345 37.0741 116.33 37.436 117.651 37.4505C118.647 37.4538 119.635 37.2697 120.563 36.9077C120.685 36.8528 120.815 36.8162 120.947 36.7991C120.977 36.7999 121.005 36.8071 121.032 36.8202C121.058 36.8334 121.081 36.8521 121.099 36.8751C121.14 36.9257 121.163 36.9888 121.164 37.0542V37.3745C121.175 37.465 121.158 37.5568 121.116 37.6374C121.073 37.718 121.007 37.7835 120.926 37.8251C119.872 38.3119 118.724 38.5584 117.564 38.547V38.5579ZM120.184 32.0872C120.184 31.8864 120.184 31.653 120.184 31.3815C120.245 30.5393 119.977 29.7062 119.437 29.0582C119.146 28.7812 118.801 28.568 118.424 28.4325C118.046 28.297 117.645 28.242 117.245 28.2711C115.003 28.2711 113.822 29.5377 113.699 32.071L120.184 32.0872Z" fill="black"></path><path d="M127.352 38.368C127.003 38.3918 126.654 38.3444 126.324 38.2287C125.995 38.1129 125.692 37.9313 125.435 37.6948C125.201 37.4308 125.021 37.1223 124.908 36.7875C124.795 36.4528 124.749 36.0986 124.775 35.746V28.5806H123.097C123.053 28.5869 123.009 28.5831 122.967 28.5692C122.925 28.5554 122.888 28.532 122.857 28.5009C122.826 28.4697 122.802 28.4318 122.788 28.39C122.775 28.3482 122.771 28.3038 122.777 28.2603V28.0431C122.768 27.9531 122.791 27.8628 122.842 27.788C122.91 27.7205 123.001 27.6817 123.097 27.6794L124.818 27.5329L124.97 24.7155C124.974 24.6264 125.006 24.5409 125.062 24.4713C125.093 24.445 125.129 24.4252 125.168 24.4131C125.207 24.401 125.248 24.3968 125.289 24.4007H125.668C125.711 24.3933 125.755 24.3963 125.797 24.4094C125.839 24.4225 125.877 24.4454 125.908 24.4761C125.939 24.5069 125.963 24.5446 125.976 24.5863C125.99 24.6279 125.994 24.6722 125.987 24.7155V27.5112H129.073C129.116 27.5048 129.161 27.5086 129.202 27.5225C129.244 27.5363 129.282 27.5597 129.313 27.5908C129.344 27.622 129.367 27.6599 129.381 27.7017C129.395 27.7435 129.399 27.7879 129.392 27.8314V28.2603C129.399 28.3038 129.395 28.3482 129.381 28.39C129.367 28.4318 129.344 28.4697 129.313 28.5009C129.282 28.532 129.244 28.5554 129.202 28.5692C129.161 28.5831 129.116 28.5869 129.073 28.5806H125.987V35.6863C125.945 36.1295 126.077 36.5718 126.355 36.9186C126.712 37.1933 127.159 37.3214 127.606 37.2768C127.97 37.282 128.333 37.2474 128.689 37.1737L129.062 37.0977C129.128 37.0799 129.195 37.069 129.262 37.0651C129.419 37.0651 129.501 37.152 129.501 37.3257V37.6405C129.501 37.8848 129.419 38.0368 129.262 38.0911C128.644 38.2858 127.999 38.3793 127.352 38.368Z" fill="black"></path><path d="M134.286 38.2377C134.195 38.2423 134.106 38.2157 134.032 38.1625C133.958 38.1092 133.905 38.0324 133.88 37.9445L130.497 28.0214C130.451 27.92 130.422 27.8119 130.41 27.7012C130.41 27.5763 130.497 27.5112 130.67 27.5112H131.352C131.435 27.5069 131.516 27.5324 131.582 27.5832C131.647 27.634 131.693 27.7067 131.709 27.788L134.622 36.8317L137.226 27.8097C137.25 27.7214 137.303 27.6439 137.377 27.5897C137.451 27.5355 137.54 27.5079 137.632 27.5112H138.411C138.503 27.5079 138.592 27.5355 138.666 27.5897C138.74 27.6439 138.793 27.7214 138.817 27.8097L141.372 36.8969L144.35 27.788C144.367 27.7057 144.413 27.6323 144.479 27.5814C144.546 27.5304 144.629 27.5055 144.713 27.5112H145.346C145.514 27.5112 145.6 27.5763 145.6 27.7012C145.586 27.8113 145.557 27.9191 145.514 28.0214L142.049 37.9445C142.023 38.0314 141.969 38.1071 141.896 38.1601C141.822 38.2131 141.734 38.2404 141.643 38.2377H140.945C140.854 38.2433 140.764 38.2172 140.69 38.1637C140.616 38.1103 140.562 38.0329 140.539 37.9445L137.962 28.8791L135.412 37.9445C135.388 38.0324 135.334 38.1092 135.26 38.1625C135.187 38.2157 135.097 38.2423 135.006 38.2377H134.286Z" fill="black"></path><path d="M151.939 38.5579C151.259 38.596 150.579 38.4812 149.949 38.222C149.319 37.9628 148.754 37.5657 148.296 37.0597C147.43 36.0554 147.002 34.6603 147.002 32.8689C147.002 31.0776 147.43 29.6825 148.296 28.6836C149.267 27.7275 150.573 27.1918 151.934 27.1918C153.295 27.1918 154.601 27.7275 155.572 28.6836C156.438 29.6825 156.871 31.0721 156.871 32.8689C156.871 34.6657 156.438 36.0554 155.572 37.0597C155.116 37.5654 154.554 37.9625 153.925 38.2218C153.297 38.481 152.618 38.5959 151.939 38.5579ZM151.939 37.4722C154.386 37.4722 155.612 35.945 155.615 32.8906C155.619 29.8363 154.394 28.3127 151.939 28.3199C149.482 28.3199 148.255 29.8435 148.258 32.8906C148.262 35.9378 149.489 37.465 151.939 37.4722Z" fill="black"></path><path d="M159.962 38.2376C159.919 38.244 159.875 38.2401 159.833 38.2263C159.791 38.2124 159.753 38.189 159.722 38.1579C159.691 38.1268 159.668 38.0888 159.654 38.0471C159.64 38.0053 159.637 37.9608 159.643 37.9173V27.8313C159.637 27.7878 159.64 27.7434 159.654 27.7016C159.668 27.6598 159.691 27.6219 159.722 27.5908C159.753 27.5596 159.791 27.5362 159.833 27.5224C159.875 27.5086 159.919 27.5047 159.962 27.5111H160.368C160.414 27.5039 160.46 27.5068 160.505 27.5197C160.549 27.5327 160.59 27.5552 160.625 27.5858C160.659 27.6164 160.687 27.6542 160.705 27.6967C160.724 27.7391 160.732 27.7851 160.731 27.8313L160.839 29.069C161.28 28.5482 161.817 28.117 162.42 27.7988C162.969 27.5426 163.569 27.4146 164.174 27.4242C164.407 27.4242 164.585 27.4242 164.715 27.4242C164.759 27.4223 164.803 27.43 164.844 27.4469C164.885 27.4638 164.922 27.4894 164.952 27.522C164.981 27.5546 165.004 27.5933 165.017 27.6355C165.031 27.6777 165.035 27.7223 165.029 27.7662V28.309C165.031 28.369 165.01 28.4273 164.97 28.4719C164.948 28.4963 164.921 28.5157 164.891 28.5288C164.861 28.5419 164.829 28.5484 164.796 28.5479H164.483C164.38 28.5479 164.233 28.5479 164.033 28.5479C163.435 28.5368 162.843 28.6631 162.301 28.917C161.74 29.2023 161.242 29.5994 160.839 30.0841V37.9173C160.847 37.9605 160.844 38.0049 160.831 38.0468C160.817 38.0886 160.795 38.1267 160.764 38.158C160.733 38.1893 160.696 38.2128 160.654 38.2267C160.613 38.2405 160.569 38.2442 160.525 38.2376H159.962Z" fill="black"></path><path d="M167.27 38.2377C167.227 38.2441 167.183 38.2402 167.141 38.2264C167.099 38.2125 167.061 38.1891 167.03 38.158C166.999 38.1269 166.976 38.0889 166.962 38.0472C166.948 38.0054 166.945 37.9609 166.951 37.9174V22.7776C166.945 22.7341 166.948 22.6896 166.962 22.6479C166.976 22.6061 166.999 22.5681 167.03 22.537C167.061 22.5059 167.099 22.4825 167.141 22.4687C167.183 22.4548 167.227 22.4509 167.27 22.4573H167.844C167.888 22.4509 167.932 22.4548 167.974 22.4687C168.015 22.4825 168.053 22.5059 168.084 22.537C168.115 22.5681 168.139 22.6061 168.152 22.6479C168.166 22.6896 168.17 22.7341 168.164 22.7776V32.299L173.268 27.7337C173.339 27.662 173.423 27.6056 173.516 27.5682C173.61 27.5309 173.71 27.5133 173.81 27.5166H174.579C174.746 27.5166 174.833 27.5817 174.833 27.7066C174.833 27.8314 174.757 27.8912 174.6 28.0269L169.452 32.5976L175.012 37.7274C175.142 37.8414 175.201 37.9391 175.201 38.0043C175.201 38.0694 175.12 38.216 174.947 38.216H174.037C173.863 38.2149 173.697 38.1469 173.572 38.026L168.158 32.9721V37.8957C168.165 37.9392 168.161 37.9837 168.147 38.0254C168.133 38.0672 168.11 38.1052 168.079 38.1363C168.048 38.1674 168.01 38.1908 167.968 38.2047C167.927 38.2185 167.882 38.2224 167.839 38.216L167.27 38.2377Z" fill="black"></path></g><defs><clipPath id="clip0_1699_56095"><rect width="175.201" height="48.2205" fill="white"></rect></clipPath></defs></svg>