<svg xmlns="http://www.w3.org/2000/svg" width="141" height="60" viewBox="0 0 141 60" fill="none"><g clip-path="url(#clip0_1699_56081)"><path d="M33.4285 16.5675C33.3632 15.8125 32.9569 15.6309 32.2709 15.637C29.9576 15.6615 27.6444 15.6472 25.3311 15.6472C23.0179 15.6472 20.7046 15.6656 18.3914 15.637C17.6564 15.6268 17.3256 15.8656 17.3603 16.6287C17.3991 17.5103 17.4236 18.4 17.3562 19.2795C17.2807 20.2549 17.6319 20.5834 18.6221 20.5651C21.6479 20.51 24.6758 20.5651 27.7036 20.5304C28.457 20.5222 28.6775 20.7834 28.5264 21.4874C28.0915 23.5219 27.3259 25.3707 25.7395 26.8134C23.6386 28.7214 21.1865 29.6703 18.3546 29.8539C12.7563 30.2192 7.67449 26.9114 5.85329 21.6119C3.96063 16.1084 5.92883 9.93554 10.5472 6.87667C15.1696 3.81576 20.819 4.04227 25.1739 7.50926C25.7497 7.96636 26.1131 8.01533 26.6113 7.45212C27.2177 6.76444 27.8608 6.10124 28.555 5.50334C29.2022 4.94626 29.0899 4.57895 28.4917 4.07084C24.6125 0.760969 20.1432 -0.496045 15.1165 0.173274C1.92097 1.9282 -4.47977 17.0675 3.50942 27.6888C8.85664 34.7983 18.3832 36.5226 25.4741 32.8046C32.0402 29.3601 33.9961 23.1832 33.4285 16.5675Z" fill="black"></path><path d="M104.809 41.8549C106.93 39.7 107.751 37.0002 107.8 34.0556C107.853 30.8621 107.812 27.6665 107.812 24.4709H107.824C107.824 21.0039 107.794 17.5369 107.845 14.0699C107.857 13.1904 107.575 12.9456 106.746 13.0088C105.866 13.0741 104.978 13.0476 104.094 13.019C103.494 13.0007 103.202 13.2149 103.237 13.8414C103.249 14.0659 103.324 14.374 103.09 14.4985C102.771 14.6658 102.624 14.3107 102.43 14.1577C100.636 12.7456 98.6122 12.1028 96.3337 12.3803C91.552 12.9619 87.7728 16.5268 86.8234 21.3243C85.8801 26.0952 88.1546 31.1151 92.3727 33.3639C95.4496 35.0045 98.5775 35.2576 101.691 33.3761C102.177 33.0823 102.679 32.2313 103.024 32.4783C103.555 32.8578 103.253 33.7373 103.212 34.3903C103.014 37.6247 101.289 39.751 98.5795 40.1448C95.7885 40.5509 93.6243 39.549 92.2074 37.1166C91.799 36.4166 91.4438 36.335 90.768 36.6697C89.9166 37.09 89.0223 37.4308 88.1383 37.7798C87.6605 37.9695 87.5482 38.2062 87.7626 38.7082C90.4372 44.979 99.9801 46.7564 104.809 41.8528V41.8549ZM102.463 27.5053C100.252 31.0009 95.4108 31.1539 92.8852 27.8093C90.8639 25.1341 91.0599 20.9998 93.4018 18.6082C95.0841 16.8901 97.1483 16.2615 99.4656 17.0819C101.985 17.9757 103.116 19.9795 103.473 22.5078C103.52 22.8425 103.508 23.1853 103.522 23.5241C103.545 24.9505 103.231 26.2891 102.463 27.5033V27.5053Z" fill="black"></path><path d="M72.803 34.6679C78.9383 34.67 83.8874 29.6317 83.8506 23.4201C83.8139 17.1514 78.971 12.3763 72.6621 12.3886C66.339 12.4008 61.5185 17.1901 61.5144 23.4609C61.5103 29.7848 66.4288 34.6679 72.803 34.67V34.6679ZM74.2301 16.9677C76.7496 17.5921 78.6423 19.8715 78.8873 22.8957C79.2262 27.0687 76.2616 30.4153 72.2885 30.201C68.9401 30.0194 66.4737 27.1524 66.4921 23.4262C66.5125 18.9675 70.1284 15.9494 74.2301 16.9677Z" fill="black"></path><path d="M47.5288 34.6658C53.8213 34.6597 58.6336 29.7561 58.605 23.3833C58.5765 17.0452 53.7397 12.313 47.3206 12.3416C41.1607 12.3681 36.3525 17.288 36.3709 23.5425C36.3893 29.7928 41.2853 34.6719 47.5309 34.6658H47.5288ZM41.9141 20.3958C43.3719 17.1941 47.1246 15.8045 50.2218 17.4084C52.6616 18.6715 53.6907 20.8264 53.7192 22.5222C53.7192 28.2971 49.4582 31.4519 45.2421 29.7867C41.8263 28.4379 40.2624 24.024 41.9141 20.3958Z" fill="black"></path><path d="M140.318 29.1991C139.587 28.7685 138.866 28.3073 138.205 27.7768C137.537 27.2401 137.157 27.3013 136.574 27.9869C133.968 31.0397 129.693 31.0275 127.153 28.0359C126.328 27.0625 126.349 26.9279 127.549 26.4259C131.341 24.8342 135.136 23.2548 138.932 21.6753C140.596 20.9829 141.014 19.8129 140.185 18.1655C137.868 13.5619 133.258 11.3825 128.574 12.6763C123.868 13.9761 120.828 18.1798 120.814 23.4078C120.777 25.0281 121.093 26.583 121.722 28.0727C124.928 35.6617 135.383 37.0024 140.479 30.4908C140.898 29.9561 140.984 29.5929 140.32 29.2011L140.318 29.1991ZM125.697 22.1896C125.802 19.2838 128.501 16.7065 132.133 16.6983C132.894 16.7044 134.134 17.1309 135.079 18.2532C135.481 18.7307 135.463 19.047 134.826 19.3103C132.035 20.4551 129.252 21.6162 126.475 22.7977C125.767 23.0997 125.675 22.8079 125.697 22.1916V22.1896Z" fill="black"></path><path d="M116.199 1.18558C115.456 1.2468 114.705 1.19579 113.956 1.19783C113.008 1.20055 112.533 1.66513 112.531 2.59156C112.531 7.58697 112.531 12.5844 112.531 17.5798H112.537C112.537 22.5752 112.537 27.5727 112.537 32.5681C112.537 33.5204 113.029 33.9979 114.013 34.0006C114.658 34.0006 115.305 34.0006 115.95 34.0006C117.42 33.9945 117.424 33.9945 117.424 32.5579C117.427 24.9444 117.424 17.3329 117.424 9.71941C117.424 7.27272 117.384 4.82399 117.439 2.37934C117.461 1.42025 117.108 1.11416 116.195 1.18967L116.199 1.18558Z" fill="black"></path><path d="M38.8088 41.6836C37.1795 41.6305 35.5461 41.708 33.9168 41.6509C33.0062 41.6183 32.6551 41.8876 32.6775 42.8508C32.7347 45.4301 32.6979 48.0115 32.6959 50.5908C32.6959 53.1722 32.7184 55.7515 32.6816 58.3308C32.6694 59.1859 32.8204 59.6266 33.8413 59.6123C34.7886 59.6001 35.0908 59.3001 35.0459 58.3798C34.9846 57.0922 35.0214 55.8005 35.0336 54.5108C35.0561 52.1009 34.7458 52.3865 37.2366 52.36C38.1534 52.3498 39.0721 52.3947 39.9787 52.2151C42.4634 51.7254 44.2519 49.6725 44.3071 47.2401C44.3785 44.0976 42.1184 41.7876 38.8067 41.6815L38.8088 41.6836ZM39.2191 50.0909C38.0758 50.1949 36.9181 50.1255 35.7666 50.1439C35.1684 50.1541 35.0316 49.8011 35.0336 49.293C35.0418 47.8033 35.0561 46.3137 35.0255 44.8241C35.0112 44.118 35.2991 43.8405 35.9912 43.8874C36.4975 43.9221 37.008 43.8935 37.5143 43.8935V43.9058C38.0227 43.9058 38.5331 43.8772 39.0374 43.9119C40.6728 44.0241 41.9632 45.375 41.9918 46.9769C42.0183 48.5135 40.8035 49.946 39.2171 50.0909H39.2191Z" fill="black"></path><path d="M55.8651 51.3233C55.7529 49.1562 54.1644 47.5747 51.9308 47.0911C49.4603 46.5544 47.0532 47.4013 45.9731 49.195C45.8383 49.4174 45.628 49.6358 45.822 49.9357C46.2201 50.5459 47.6248 50.6357 48.1434 50.0806C49.0785 49.0787 50.2443 48.8828 51.5122 49.1827C52.5841 49.4358 53.3151 50.1071 53.6295 51.1785C53.7132 51.4641 53.8234 51.8172 53.5805 52.0498C53.3518 52.2681 53.0701 52.0253 52.8251 51.9539C50.9222 51.407 49.054 51.4274 47.2777 52.3681C45.673 53.215 44.9298 54.6965 45.1585 56.4249C45.3749 58.0655 46.5039 59.3388 48.1761 59.7694C50.2607 60.3061 52.0737 59.851 53.6642 57.9961C53.7009 58.4757 53.7193 58.7083 53.7377 58.9409C53.8071 59.8204 54.489 59.5307 54.979 59.5715C55.4813 59.6123 55.9448 59.5715 55.9387 58.8634C55.9162 56.3494 55.9999 53.8312 55.8713 51.3233H55.8651ZM53.1905 56.1086C52.284 57.4839 50.571 58.1716 49.1214 57.7288C48.3313 57.488 47.682 57.0738 47.5575 56.1759C47.4329 55.2719 47.8555 54.6087 48.5742 54.0986C49.2786 53.5986 50.0933 53.5558 51.01 53.4966C51.3162 53.5354 51.7225 53.568 52.1227 53.6415C53.7949 53.9476 54.1175 54.7026 53.1885 56.1106L53.1905 56.1086Z" fill="black"></path><path d="M94.4656 47.032C91.9931 47.5197 90.1903 49.4481 89.6962 52.1376C89.1776 54.9557 90.2924 57.7513 92.4709 59.1022C95.1149 60.7408 98.8267 60.0755 100.515 57.635C100.742 57.3085 101.358 56.8085 100.634 56.4882C100.072 56.2392 99.4167 55.3617 98.7144 56.3922C97.7691 57.7819 96.395 58.1023 94.8494 57.7431C93.2671 57.3758 92.381 56.2861 91.987 54.7434C91.8236 54.1068 92.0441 53.866 92.6852 53.8741C94.0103 53.8925 95.3374 53.8803 96.6645 53.8803V53.8741C97.9916 53.8741 99.3167 53.8639 100.644 53.8803C101.171 53.8864 101.438 53.7374 101.473 53.1395C101.699 49.3154 98.2448 46.2912 94.4656 47.034V47.032ZM98.0917 51.9886C97.2423 52.0049 96.393 51.9927 95.5436 51.9927C94.6596 51.9927 93.7775 51.9804 92.8955 51.9968C92.2503 52.009 91.9931 51.8152 92.3198 51.1581C92.967 49.8623 93.9735 49.1073 95.4436 49.0624C96.885 49.0195 98.0243 49.5562 98.7123 50.8826C99.1574 51.7397 99.0349 51.9702 98.0917 51.9886Z" fill="black"></path><path d="M87.5421 51.3417C87.4196 48.6073 85.6454 46.9666 83.0361 46.936C81.464 46.9176 80.2614 47.6727 79.1303 48.8378C79.0629 48.6032 79.0201 48.5338 79.0303 48.4746C79.1814 47.4727 78.6526 47.3258 77.7848 47.3053C76.766 47.2809 76.8048 47.8767 76.8069 48.5562C76.8109 51.8865 76.8314 55.2168 76.7946 58.545C76.7844 59.4531 77.203 59.6041 77.9788 59.598C78.7281 59.5918 79.1977 59.5163 79.1712 58.5715C79.114 56.637 79.1589 54.6985 79.1548 52.7619C79.1528 51.6947 79.4937 50.7642 80.2165 49.9745C81.1128 48.995 82.2521 48.9358 83.4199 49.2194C84.4959 49.4806 85.0308 50.305 85.2064 51.3539C85.2901 51.8539 85.3106 52.3681 85.3126 52.8742C85.3249 54.8454 85.3371 56.8166 85.3126 58.7858C85.3024 59.6245 85.8373 59.5939 86.4049 59.5776C86.9705 59.5612 87.6075 59.7102 87.5952 58.7797C87.5666 56.3003 87.6544 53.8149 87.5442 51.3396L87.5421 51.3417Z" fill="black"></path><path d="M73.4054 57.6656C72.2702 57.7084 71.6536 57.1534 71.6128 55.9392C71.5679 54.5843 71.5801 53.2252 71.6026 51.8682C71.6148 51.1275 71.3188 50.2561 71.7537 49.6807C72.2028 49.0848 73.091 49.4562 73.7831 49.4277C74.561 49.397 74.5263 48.9012 74.5222 48.3767C74.5181 47.8625 74.5855 47.3442 73.7913 47.3238C73.0971 47.3054 72.2049 47.6584 71.7557 47.0891C71.3106 46.5259 71.6475 45.6444 71.5944 44.9036C71.5842 44.7689 71.5801 44.6322 71.5903 44.4975C71.6393 43.8405 71.3351 43.616 70.6858 43.6078C69.2873 43.5895 69.2567 43.5895 69.2526 44.9812C69.2526 45.4219 69.2179 45.8668 69.2567 46.3035C69.3281 47.1116 68.9769 47.434 68.1909 47.334C67.4232 47.2381 67.0945 47.5197 67.1149 48.3502C67.1353 49.1073 67.3211 49.5338 68.1521 49.4195C69.1035 49.2889 69.2791 49.7929 69.2669 50.6214C69.2362 52.5212 69.1893 54.4271 69.324 56.3188C69.4874 58.6308 70.8349 59.7654 73.1543 59.7633C73.289 59.7633 73.434 59.7919 73.5606 59.7572C74.0322 59.6266 74.7733 59.9123 74.8407 59.1144C74.9122 58.29 74.2037 57.635 73.4033 57.6656H73.4054Z" fill="black"></path><path d="M109.98 47.0727C108.271 46.934 106.961 47.6196 105.84 49.0766C105.785 48.7766 105.738 48.6746 105.752 48.5807C105.885 47.6155 105.503 47.3074 104.509 47.3013C103.382 47.2952 103.537 47.9706 103.535 48.644C103.535 51.8008 103.541 54.9597 103.529 58.1165C103.527 58.9287 103.431 59.698 104.68 59.6041C105.852 59.5164 105.868 59.5755 105.872 58.0655C105.879 56.233 105.836 54.3965 105.903 52.566C105.975 50.6438 107.353 49.2521 109.147 49.3827C110.103 49.4521 110.432 49.0827 110.746 48.295C111.097 47.4155 110.846 47.1462 109.98 47.0768V47.0727Z" fill="black"></path><path d="M64.4852 47.0625C62.956 47.1054 61.7534 47.7237 60.8878 48.9664C60.604 48.7889 60.6693 48.5563 60.6897 48.3746C60.7836 47.4788 60.3181 47.3237 59.5321 47.3094C58.6705 47.2952 58.5153 47.6829 58.5194 48.4195C58.5418 51.8192 58.5521 55.2188 58.5153 58.6185C58.5051 59.5123 58.9604 59.598 59.6627 59.5919C60.3406 59.5857 60.849 59.5633 60.8224 58.6409C60.7693 56.8758 60.8041 55.1066 60.8102 53.3374C60.8183 50.6458 61.929 49.4194 64.5894 49.3501C65.6531 49.3215 65.451 48.6848 65.4979 48.0583C65.5551 47.2952 65.2345 47.0421 64.4893 47.0625H64.4852Z" fill="black"></path></g><defs><clipPath id="clip0_1699_56081"><rect width="141" height="60" fill="white"></rect></clipPath></defs></svg>