<svg xmlns="http://www.w3.org/2000/svg" width="191" height="54" viewBox="0 0 191 54" fill="none"><path d="M96.9338 25.6048H93.8749V13.6559C93.8612 12.4724 93.9022 11.2934 94.0069 10.1145C93.9068 10.7062 93.7292 11.2798 93.4743 11.8169L87.8709 25.714H85.736L80.1234 11.958L79.5909 10.1054C79.7229 10.8929 79.7229 12.0718 79.7229 13.7788V25.7413H76.7869V7.23309H81.1886L86.1275 19.5643L86.9286 21.6628C87.1335 20.8981 87.3975 20.1515 87.7298 19.4323L92.8006 7.10108H97.0704L96.9338 25.6048ZM102.674 9.59555C102.173 9.62286 101.686 9.43168 101.34 9.07208C100.981 8.78986 100.785 8.34832 100.808 7.89312C100.757 7.43337 100.962 6.97818 101.34 6.71416C101.722 6.40918 102.187 6.22255 102.674 6.19069C103.175 6.16338 103.662 6.35456 104.008 6.71416C104.367 6.99638 104.563 7.43792 104.54 7.89312C104.59 8.35287 104.385 8.80806 104.008 9.07208C103.657 9.43168 103.175 9.62286 102.674 9.59555ZM104.14 25.6048H101.072V12.354H104.14V25.6048ZM117.882 25.0813C116.812 25.7368 115.478 26.0099 114.013 26.0099C112.01 26.0099 110.408 25.3544 109.206 24.1709C108.004 22.9874 107.353 21.417 107.353 19.446C107.353 17.2155 108.022 15.5085 109.356 14.1976C110.69 12.8866 112.424 12.2311 114.691 12.2311C115.793 12.2311 116.88 12.4542 117.891 12.8866V15.636C117.04 15.0033 116.016 14.6346 114.955 14.5845C113.626 14.5845 112.552 14.976 111.755 15.8955C110.936 16.8332 110.503 18.0485 110.553 19.2912C110.553 20.6022 110.954 21.7811 111.755 22.5686C112.579 23.3561 113.685 23.7794 114.823 23.7476C115.952 23.7339 117.044 23.3151 117.891 22.5686V25.0813H117.882ZM128.688 15.2445C128.206 14.9623 127.65 14.8257 127.086 14.8531C126.157 14.8531 125.484 15.2445 124.815 16.032C124.15 16.8195 123.886 17.8847 123.886 19.3094V25.6093H120.818V12.354H123.886V15.108C124.136 14.2659 124.596 13.5011 125.22 12.8775C125.802 12.3495 126.567 12.0673 127.355 12.09C127.769 12.0855 128.183 12.172 128.556 12.354L128.688 15.2445ZM136.823 26.0053C134.688 26.0053 133.085 25.3499 131.884 24.1664C130.682 22.9829 130.031 21.2804 130.031 19.3185C130.031 17.0881 130.7 15.3811 132.034 14.0701C133.368 12.7592 135.102 12.2175 137.237 12.2175C139.372 12.2175 140.974 12.873 142.176 14.0701C143.382 15.2673 143.896 16.947 143.896 19.1774C143.951 21.0574 143.291 22.8873 142.044 24.2938C140.551 25.4455 138.712 26.0554 136.827 26.0144L136.823 26.0053ZM136.959 14.4616C135.757 14.4616 134.824 14.8531 134.16 15.6405C133.491 16.428 133.09 17.607 133.09 19.0363C133.09 20.4656 133.491 21.5262 134.16 22.3137C134.829 23.1012 135.762 23.4927 136.959 23.4927C138.156 23.4927 139.094 23.1012 139.759 22.3137C140.423 21.5262 140.687 20.4747 140.687 18.918C140.687 17.475 140.423 16.296 139.759 15.5222C139.003 14.8075 137.992 14.4297 136.959 14.4707V14.4616ZM146.031 25.2088V22.4457C147.233 23.2332 148.435 23.7567 149.768 23.7567C151.635 23.7567 152.568 23.2332 152.568 22.1817C152.54 21.904 152.449 21.6309 152.304 21.3942C152.144 21.153 151.912 20.9663 151.635 20.8707C151.334 20.716 151.025 20.584 150.706 20.4793L149.504 20.0878C149.004 19.8966 148.517 19.6781 148.039 19.4323C147.661 19.2002 147.301 18.9407 146.969 18.6448C146.673 18.349 146.445 17.9894 146.3 17.5933C146.136 17.1746 146.045 16.7285 146.036 16.2824C146.027 15.6906 146.163 15.1034 146.436 14.5799C146.696 14.0656 147.119 13.6513 147.638 13.401C148.171 13.0095 148.708 12.8775 149.372 12.6135C150.028 12.4633 150.702 12.3722 151.375 12.3495C152.509 12.3085 153.642 12.4906 154.712 12.873V15.4994C153.77 14.8576 152.65 14.5344 151.512 14.5708C151.152 14.539 150.788 14.5845 150.442 14.7028C150.178 14.8348 149.909 14.8349 149.641 14.9669C149.404 15.067 149.213 15.2582 149.108 15.4903C148.999 15.6906 148.954 15.9182 148.976 16.1458C148.954 16.4144 148.999 16.6875 149.108 16.9333C149.213 17.17 149.404 17.3566 149.641 17.4568C149.941 17.6115 150.251 17.7436 150.57 17.8482C150.97 17.9803 151.239 18.1123 151.771 18.2397C152.281 18.5128 152.814 18.7313 153.369 18.8952C153.902 19.0272 154.17 19.4187 154.571 19.6827C154.867 20.0059 155.135 20.3609 155.372 20.7342C155.536 21.1985 155.627 21.6855 155.636 22.1772C155.636 22.8326 155.504 23.4881 155.103 23.8796C154.812 24.3712 154.398 24.7809 153.906 25.0722C153.31 25.3817 152.691 25.6457 152.053 25.8597C150.032 26.3741 147.893 26.1419 146.031 25.2088ZM164.585 26.0053C162.45 26.0053 160.848 25.3499 159.646 24.1664C158.444 22.9829 157.793 21.2804 157.793 19.3185C157.793 17.0881 158.463 15.3811 159.796 14.0701C161.13 12.7592 162.864 12.2175 164.999 12.2175C167.134 12.2175 168.736 12.873 169.938 14.0701C171.144 15.2673 171.672 16.9561 171.672 19.1865C171.727 21.0665 171.067 22.8964 169.82 24.3029C168.308 25.4409 166.46 26.0418 164.571 26.0099L164.585 26.0053ZM164.717 14.4616C163.515 14.4616 162.582 14.8531 161.918 15.6405C161.253 16.428 160.848 17.607 160.848 19.0363C160.848 20.4656 161.248 21.5262 161.918 22.3137C162.587 23.1012 163.52 23.4927 164.717 23.4927C165.914 23.4927 166.852 23.1012 167.516 22.3137C168.181 21.5262 168.445 20.4747 168.445 18.918C168.445 17.475 168.181 16.296 167.516 15.5222C166.765 14.7984 165.75 14.4115 164.708 14.4525L164.717 14.4616ZM182.187 8.5486C181.746 8.28004 181.236 8.14348 180.722 8.15714C179.256 8.15714 178.45 8.94462 178.45 10.6471V12.486H181.518V14.8485H178.45V25.7459H175.391V14.844H173.12V12.4815H175.391V10.383C175.391 8.94007 175.792 7.89312 176.72 7.10564C178.2 5.96765 180.144 5.6217 181.923 6.17704V8.5395H182.178L182.187 8.5486ZM191 25.4728C190.467 25.7322 189.666 25.8642 188.597 25.8642C185.929 25.8642 184.727 24.6853 184.727 22.1908V14.7165H182.456V12.354H184.727V9.33609L187.795 8.5486V12.486H190.995V14.8485H187.795V21.4215C187.754 22.0178 187.891 22.6141 188.196 23.124C188.46 23.5154 188.997 23.6474 189.662 23.6474C190.135 23.652 190.604 23.5109 190.991 23.2378V25.4682L191 25.4728ZM95.4863 52.8528H92.0177L90.2834 48.1324H82.8091L81.2068 52.8573H77.7382L84.812 34.3582H88.2714L95.4863 52.8528ZM89.4823 45.6334L86.8148 38.2865C86.6965 37.8996 86.61 37.5081 86.5508 37.1076C86.4916 37.5081 86.4006 37.8996 86.2868 38.2865L83.7514 45.6334H89.4823ZM107.645 40.9039L100.439 50.4767H107.645V52.8391H96.1554V51.6829L103.63 41.9645H96.9611V39.602H107.767V40.9039H107.645ZM122.038 52.8528H118.97V50.7543C118.16 52.2701 116.553 53.1896 114.832 53.1168C111.632 53.1168 110.025 51.2778 110.025 47.4769V39.602H113.093V47.2129C113.093 49.5754 114.026 50.7543 115.893 50.7543C116.748 50.7907 117.577 50.4493 118.164 49.8257C118.765 49.0838 119.093 48.1552 119.093 47.1993V39.5975H122.161L122.038 52.8528ZM133.782 42.488C133.299 42.2058 132.744 42.0692 132.18 42.0965C131.251 42.0965 130.577 42.488 129.908 43.2755C129.244 44.0629 128.98 45.1281 128.98 46.5529V52.8528H125.912V39.5975H128.98V42.3514C129.23 41.5093 129.69 40.7446 130.313 40.121C130.891 39.5975 131.642 39.3198 132.425 39.3335C132.84 39.3289 133.254 39.4154 133.627 39.5975L133.782 42.488ZM147.388 47.0809H138.184C138.184 48.2599 138.584 49.3114 139.385 49.9668C140.054 50.6223 141.12 51.0183 142.453 51.0183C143.901 51.0502 145.317 50.5859 146.468 49.7074V52.0698C145.257 52.8619 143.651 53.2579 141.652 53.2579C139.904 53.3171 138.215 52.6434 136.982 51.4053C135.78 50.2263 135.248 48.5193 135.248 46.2889C135.184 44.4453 135.848 42.6564 137.1 41.2999C138.297 39.9981 140 39.2788 141.771 39.3289C143.623 39.3289 144.971 39.8524 146.04 41.0314C147.11 42.2103 147.506 43.7853 147.506 45.8792L147.388 47.0809ZM144.452 44.9779C144.452 43.9264 144.188 43.0115 143.651 42.488C143.132 41.8507 142.335 41.5048 141.516 41.5594C140.66 41.523 139.831 41.8644 139.244 42.488C138.575 43.1435 138.316 43.9309 138.175 44.9779H144.452Z" fill="black"></path><path fill-rule="evenodd" clip-rule="evenodd" d="M41.7642 7.9113L31.8136 27.9536L49.3341 48.2598L16.8195 51.9515L67.2733 52.4795L41.7642 7.9113ZM39.8023 0L16.956 19.1182L0 47.7272L14.4342 46.2797L39.8023 0Z" fill="black"></path></svg>