<svg xmlns="http://www.w3.org/2000/svg" width="222" height="34" viewBox="0 0 222 34" fill="none"><g clip-path="url(#clip0_1699_56058)"><path d="M45.1591 27.4349C45.1591 28.9649 45.1591 30.4949 45.1591 32.0249C45.1591 32.2803 45.1591 32.4887 44.8576 32.5939C41.2849 33.8551 37.6682 34.2808 34.0581 32.8762C31.082 31.7203 29.4354 29.3435 28.9225 26.2096C28.4206 23.1921 28.7861 20.2911 30.5471 17.7105C32.1782 15.318 34.5094 14.0389 37.2896 13.6267C39.7664 13.2752 42.2879 13.4506 44.6947 14.142C45.0689 14.2473 45.1723 14.4085 45.1679 14.7916C45.1459 16.5255 45.1459 18.2601 45.1679 19.9954C45.1679 20.3964 45.0975 20.5532 44.6616 20.5375C43.6557 20.5039 42.6453 20.5174 41.6371 20.5375C41.3399 20.5375 41.2145 20.4569 41.1968 20.1433C41.1594 19.6796 41.0361 19.2226 41.0119 18.7589C40.9899 18.3422 40.8204 18.1921 40.4198 18.1451C38.3154 17.8987 36.354 18.1451 34.987 20.0156C33.9348 21.4605 33.816 23.1518 34.0383 24.8789C34.2254 26.3081 34.7779 27.5357 36.0305 28.3153C37.3336 29.1285 38.7644 29.1733 40.2305 28.9537C40.433 28.9224 40.4506 28.8036 40.4506 28.6423C40.4506 27.9703 40.4374 27.2983 40.4506 26.6262C40.4506 26.3484 40.3273 26.2857 40.094 26.2566C39.6031 26.1984 39.1166 26.0841 38.6258 26.0438C38.3022 26.0169 38.1855 25.9071 38.1855 25.5689C38.2031 24.6549 38.2053 23.7409 38.1855 22.827C38.1855 22.4708 38.311 22.3901 38.6258 22.3924C40.6627 22.4043 42.6981 22.4043 44.7321 22.3924C45.0843 22.3924 45.1591 22.5201 45.1569 22.8404C45.1415 24.3816 45.1591 25.9071 45.1591 27.4349Z" fill="black"></path><path d="M26.0675 17.1325C26.0675 17.9345 26.0675 18.7387 26.0675 19.5384C26.0675 19.8588 26.019 20.0044 25.6536 19.9864C24.6102 19.9596 23.5624 19.9618 22.519 19.9864C22.2042 19.9864 22.1052 19.8655 22.0788 19.5855C22.0215 19.124 21.9357 18.6648 21.8894 18.2033C21.863 17.9367 21.7596 17.8023 21.4932 17.7799C20.8152 17.7172 20.1416 17.6881 19.4834 17.93C18.9089 18.1406 18.4973 18.499 18.429 19.1531C18.3608 19.8072 18.7944 20.0872 19.2545 20.3449C20.1878 20.8735 21.218 21.1535 22.2086 21.5389C22.809 21.7662 23.3969 22.0265 23.9696 22.3184C26.926 23.8395 27.6326 26.5075 26.6112 29.4353C25.6822 32.0742 23.5932 33.2749 20.9935 33.6244C18.6337 33.9402 16.3224 33.5908 14.0573 32.8605C13.6501 32.7306 13.4784 32.5603 13.4894 32.0899C13.5246 30.542 13.5158 28.994 13.4894 27.4461C13.4894 27.0496 13.5532 26.8905 13.9891 26.9062C15.0148 26.9421 16.0428 26.9286 17.0708 26.9062C17.3878 26.9062 17.5705 26.9376 17.5837 27.3363C17.5991 27.8179 17.7202 28.2951 17.762 28.7767C17.76 28.8228 17.767 28.8688 17.7827 28.912C17.7984 28.9552 17.8224 28.9948 17.8534 29.0285C17.8844 29.0621 17.9217 29.089 17.9631 29.1078C18.0045 29.1265 18.0491 29.1365 18.0944 29.1374C18.8935 29.2472 19.6926 29.3614 20.4982 29.1732C21.3039 28.9851 21.7684 28.5505 21.8476 27.8403C21.9269 27.1302 21.6891 26.7337 20.8394 26.3081C19.8202 25.7951 18.7086 25.5285 17.652 25.1096C16.657 24.7154 15.6884 24.2718 14.8982 23.5191C12.3007 21.0415 12.8686 16.5546 16.0252 14.5967C17.2472 13.8652 18.6339 13.4671 20.0514 13.4408C21.8845 13.3457 23.7209 13.5453 25.4929 14.0322C25.9178 14.1554 26.1313 14.3167 26.0939 14.8274C26.0256 15.6003 26.0697 16.3686 26.0675 17.1325Z" fill="black"></path><path d="M8.90856 21.3261C8.90856 23.7141 8.90856 26.0998 8.89755 28.4945C8.89755 28.9425 9.01642 29.077 9.45007 29.0523C9.99599 29.0209 10.7334 28.8485 11.0438 29.1307C11.4026 29.4533 11.1429 30.2149 11.1561 30.7862C11.1737 31.624 11.1561 32.464 11.1561 33.3018C11.1561 33.5639 11.0922 33.6558 10.8215 33.6558C7.70446 33.6468 4.58818 33.6468 1.47264 33.6558C1.17106 33.6558 1.11163 33.546 1.11383 33.2682C1.11383 31.9824 1.12704 30.6966 1.11383 29.4107C1.11383 29.1083 1.21289 29.0277 1.49466 29.0366C2.02517 29.0568 2.55787 29.0366 3.08838 29.0366C3.35033 29.0366 3.43618 28.947 3.43618 28.6827C3.43618 25.327 3.43618 21.9712 3.43618 18.6155C3.43618 18.2952 3.2953 18.2459 3.03555 18.2526C2.52265 18.2638 2.00755 18.2526 1.49466 18.2526C1.21289 18.2526 1.11163 18.172 1.11383 17.874C1.1285 16.5882 1.1285 15.3016 1.11383 14.0143C1.11383 13.7052 1.2349 13.6447 1.50566 13.6469C3.83241 13.6469 6.16135 13.6604 8.4881 13.6469C8.91735 13.6469 8.90415 13.8709 8.90415 14.1666C8.90415 16.5546 8.90562 18.9411 8.90856 21.3261Z" fill="black"></path><path d="M3.04633 6.59769C2.09978 6.29079 1.20606 5.98614 0.301331 5.71956C-0.00244491 5.62995 -0.0486679 5.50899 0.0437857 5.21777C0.296932 4.42252 0.536872 3.62279 0.745993 2.81411C0.836245 2.47137 0.979329 2.43328 1.28311 2.53185C2.20104 2.82755 3.12777 3.10084 4.09853 3.39654C4.09853 2.37728 4.12054 1.42746 4.09853 0.484368C4.08312 0.0677035 4.24603 -0.00398184 4.60484 0.00721883C5.37308 0.0318603 6.14573 0.0363406 6.91397 0.00721883C7.3102 -0.0084621 7.45549 0.0856242 7.43788 0.52245C7.40045 1.45211 7.42687 2.384 7.42687 3.39654C8.34921 3.12101 9.24072 2.88803 10.108 2.57889C10.5483 2.42432 10.7134 2.50721 10.8234 2.95524C11.0083 3.69224 11.2219 4.42476 11.464 5.14609C11.5939 5.52915 11.464 5.66356 11.1228 5.76436C10.2423 6.02422 9.39041 6.31095 8.48128 6.60441C9.05801 7.44222 9.59292 8.23971 10.1542 9.01927C10.3524 9.29481 10.3304 9.43818 10.0398 9.62859C9.36399 10.0766 8.71902 10.5515 8.05864 11.0376C7.80329 11.2303 7.6602 11.2437 7.46209 10.9503C6.99322 10.2603 6.47591 9.60619 6.00044 8.93415C5.81553 8.66982 5.71427 8.68102 5.53377 8.93415C5.05609 9.60619 4.5454 10.2782 4.06772 10.9503C3.90043 11.19 3.78376 11.2639 3.51741 11.0623C2.84382 10.5515 2.15041 10.0632 1.4504 9.58827C1.21047 9.42474 1.18846 9.30601 1.36016 9.06632C1.91708 8.26211 2.45419 7.44894 3.04633 6.59769Z" fill="black"></path><path d="M128.599 31.9689C128.308 31.9689 128.013 31.895 127.718 31.9085C127.221 31.9309 127.097 31.7181 127.097 31.2207C127.115 25.1724 127.097 19.1352 127.097 13.0936C127.097 12.9435 127.097 12.7934 127.097 12.6456C127.097 12.4215 126.996 12.3543 126.794 12.3566C125.73 12.3566 124.667 12.3566 123.604 12.3566C123.55 12.3473 123.495 12.3569 123.448 12.3838C123.4 12.4107 123.363 12.4532 123.342 12.5044C123.122 13.0465 123.401 13.5707 123.958 13.6133C124.341 13.6424 124.724 13.7007 125.107 13.7096C125.398 13.7096 125.479 13.8351 125.477 14.1173C125.477 16.297 125.477 18.4766 125.477 20.7974C125.319 20.6115 125.242 20.5331 125.18 20.4457C123.366 17.8113 118.499 17.5514 116.738 21.1177C115.272 24.0882 115.18 27.2042 116.351 30.2709C118.024 34.6526 123.415 34.1844 125.233 31.615C125.292 31.5299 125.321 31.3596 125.53 31.4134C125.559 31.8905 125.609 32.3722 125.612 32.8538C125.612 33.1764 125.739 33.2727 126.039 33.2682C126.919 33.257 127.8 33.2369 128.68 33.2682C129.151 33.2884 129.237 33.1226 129.257 32.6746C129.29 32.137 129.101 31.9555 128.599 31.9689ZM124.416 30.9967C122.034 33.1831 118.416 32.1459 117.608 29.0075C116.991 26.763 117.129 24.3733 118 22.2176C119.261 19.0815 123.329 19.3458 124.865 21.5702C125.275 22.1661 125.557 22.7642 125.504 23.5281C125.444 24.3816 125.49 25.2441 125.49 26.102C125.49 26.9219 125.429 27.7485 125.506 28.5662C125.603 29.6168 125.112 30.3538 124.405 30.9967H124.416Z" fill="black"></path><path d="M61.3913 13.835C59.7668 13.611 58.1312 13.7924 56.7929 13.7342C55.1265 13.7342 53.7507 13.7342 52.3771 13.7342C52.124 13.7342 51.9016 13.7723 51.9831 14.0859C52.0645 14.3995 51.6749 14.8811 52.2847 14.982C52.6639 15.0498 53.0488 15.0798 53.4337 15.0716C53.9422 15.0536 54.1183 15.2239 54.1095 15.775C54.0765 18.0151 54.0963 20.2552 54.0963 22.4954C54.0963 25.4419 54.0963 28.3884 54.0963 31.3349C54.0963 31.6597 54.0963 31.9129 53.6561 31.9039C53.2158 31.895 52.7755 31.9711 52.3353 31.998C51.6749 32.0383 52.0293 32.5424 51.9589 32.8425C51.8796 33.1853 52.0579 33.2906 52.3881 33.2906C54.0567 33.2771 55.7253 33.2906 57.3938 33.2906C57.636 33.2906 57.8737 33.2771 57.7945 32.9478C57.7152 32.6185 58.096 32.1078 57.4444 32.0271C56.991 31.9656 56.5347 31.9275 56.0775 31.9129C55.7319 31.9129 55.6614 31.7516 55.6636 31.4313C55.6768 29.5107 55.6768 27.5894 55.6636 25.6674C55.6636 25.2731 55.7869 25.1634 56.1655 25.1678C57.6492 25.1813 59.135 25.1947 60.6209 25.1499C62.1067 25.1051 63.4979 24.7377 64.614 23.6826C66.4719 21.9264 66.7382 19.7243 66.0118 17.4103C65.3294 15.1634 63.586 14.1352 61.3913 13.835ZM64.7505 19.7154C64.7374 20.7135 64.3611 21.6712 63.6942 22.4032C63.0274 23.1352 62.1174 23.5895 61.1404 23.6782C59.4432 23.873 57.7372 23.7319 56.0356 23.779C55.6636 23.779 55.6812 23.5549 55.6812 23.3085C55.6812 22.0227 55.6812 20.7369 55.6812 19.451C55.6812 18.1652 55.6812 16.8794 55.6812 15.5935C55.6812 15.4031 55.6196 15.1455 55.9454 15.1589C57.7724 15.2127 59.6149 14.9752 61.4288 15.2866C63.5992 15.6562 64.8473 17.3789 64.7505 19.7154Z" fill="black"></path><path d="M203.684 31.9981C203.244 31.9667 202.803 31.9062 202.363 31.9017C201.989 31.9017 201.877 31.7584 201.881 31.3708C201.903 29.5989 201.901 27.8269 201.881 26.0572C201.881 24.8655 201.965 23.6715 201.76 22.4842C201.472 20.8108 200.778 19.4287 199.119 18.8104C197.849 18.3388 196.455 18.3459 195.189 18.8306C194.075 19.236 193.279 20.0358 192.583 21.1849C192.532 20.4099 192.466 19.8185 192.466 19.2293C192.466 18.8126 192.29 18.7454 191.934 18.7566C191.165 18.779 190.393 18.7566 189.624 18.7566C188.808 18.7701 188.894 18.5662 188.872 19.5295C188.872 19.8498 188.933 20.0044 189.29 19.9977C189.646 19.9909 190.058 20.1052 190.437 20.085C190.908 20.0582 191.011 20.2396 191.009 20.6943C190.991 23.9941 191.009 27.296 191.009 30.5957C191.009 31.9017 191.009 31.9017 189.706 31.9645C188.825 32.0048 188.847 32.0048 188.878 32.8852C188.878 33.1809 188.986 33.2682 189.266 33.266C190.989 33.266 192.713 33.266 194.436 33.266C194.58 33.266 194.723 33.2772 194.793 33.089C195.013 32.4685 194.747 32.0182 194.111 31.9689C193.763 31.9488 193.415 31.8816 193.069 31.8883C192.686 31.8995 192.629 31.7136 192.629 31.3798C192.629 28.956 192.682 26.5299 192.616 24.1083C192.589 23.4927 192.704 22.8792 192.952 22.3173C193.201 21.7553 193.576 21.2608 194.047 20.8736C195.275 19.7893 196.73 19.6392 198.229 20.1388C199.565 20.5868 200.1 21.7069 200.21 23.0286C200.457 25.8556 200.268 28.6939 200.32 31.5254C200.32 31.7494 200.252 31.8592 200.012 31.8704C199.519 31.8973 199.026 31.9577 198.533 31.9891C197.873 32.0317 198.229 32.5357 198.157 32.8359C198.084 33.1361 198.229 33.2682 198.546 33.266C200.253 33.2555 201.958 33.2555 203.662 33.266C203.979 33.266 204.124 33.1428 204.056 32.8381C203.988 32.5335 204.327 32.0339 203.684 31.9981Z" fill="black"></path><path d="M136.098 18.4945C133.868 18.7185 132.394 19.9752 131.366 21.8704C130.434 23.5886 130.39 25.477 130.564 27.3699C130.784 29.8609 131.885 31.8815 134.155 32.9366C136.501 34.0253 138.843 33.7072 141 32.2646C141.769 31.7494 141.731 31.7225 141.267 30.9384C141.078 30.6181 140.974 30.5419 140.655 30.8332C139.085 32.2646 136.193 32.6096 134.533 31.5254C132.772 30.3695 132.171 28.5773 132.112 26.5366C132.099 26.1401 132.22 26.0348 132.603 26.0393C134.106 26.0617 135.61 26.0393 137.115 26.0393H141.683C141.903 26.0393 142.167 26.0998 142.154 25.701C142.13 24.805 142.18 23.9089 142.02 23.0241C141.476 20.0581 139.03 18.2078 136.098 18.4945ZM139.374 24.6706H136.351C135.123 24.6706 133.895 24.6571 132.669 24.6706C132.286 24.6706 132.204 24.5608 132.272 24.1889C132.517 22.8269 133.043 21.6172 134.119 20.7346C135.321 19.7445 136.69 19.6034 138.101 20.1634C139.512 20.7234 140.237 21.8749 140.474 23.3421C140.679 24.6638 140.646 24.6706 139.374 24.6706Z" fill="black"></path><path d="M181.139 18.5013C178.77 18.6783 177.258 20.0918 176.252 22.146C175.468 23.7477 175.429 25.486 175.569 27.2266C175.79 29.7804 176.846 31.857 179.191 32.9412C181.535 34.0254 183.84 33.7096 185.984 32.2848C186.8 31.7427 186.781 31.6442 186.221 30.8265C186.056 30.5868 185.944 30.6025 185.755 30.7705C184.566 31.8659 183.126 32.1594 181.572 32.1146C181.012 32.1129 180.458 31.9896 179.949 31.7528C179.439 31.516 178.984 31.1712 178.616 30.7414C177.559 29.5474 177.159 28.107 177.108 26.5322C177.095 26.1446 177.203 26.0237 177.592 26.0304C179.096 26.0528 180.599 26.0304 182.101 26.0304C183.602 26.0304 185.145 26.0169 186.664 26.0304C187.054 26.0304 187.17 25.9206 187.155 25.5286C187.12 24.693 187.177 23.8552 187.021 23.0219C186.481 20.112 184.291 18.2639 181.139 18.5013ZM184.414 24.6706H181.392C180.148 24.6706 178.902 24.6706 177.65 24.6706C177.304 24.6706 177.209 24.5877 177.28 24.2226C177.424 23.2059 177.825 22.2448 178.444 21.4336C178.93 20.7834 179.599 20.2994 180.362 20.0464C181.125 19.7934 181.946 19.7835 182.715 20.0179C184.174 20.4256 185.282 21.7831 185.493 23.4206C185.66 24.6706 185.66 24.6706 184.414 24.6706Z" fill="black"></path><path d="M90.6176 22.426C89.7151 20.262 88.1962 18.8418 85.8453 18.5439C83.3094 18.2303 81.2226 19.0277 79.7764 21.2723C78.1012 23.8799 78.1849 28.4632 79.9525 31.0012C82.2066 34.2405 87.1264 34.4331 89.5874 31.3686C90.8598 29.7849 91.2538 27.9211 91.1944 25.8691C91.2499 24.6924 91.0531 23.5175 90.6176 22.426ZM89.5808 26.8458C89.5199 28.3295 88.9639 29.7478 88.0047 30.8668C86.4638 32.6186 82.9198 32.6589 81.4009 30.3561C80.5508 29.0704 80.1436 27.5342 80.243 25.9878C80.1792 24.366 80.5292 22.892 81.4713 21.5905C81.8676 21.0577 82.3782 20.6241 82.9641 20.3227C83.5501 20.0212 84.1959 19.8599 84.8524 19.8511C85.5089 19.8422 86.1588 19.986 86.7524 20.2715C87.346 20.5571 87.8677 20.9768 88.2777 21.4986C89.4774 23.0779 89.7129 24.9148 89.5808 26.8458Z" fill="black"></path><path d="M214.437 26.3709C213.63 25.9328 212.775 25.5923 211.89 25.3561C210.935 25.0985 209.955 24.935 209.044 24.5272C207.917 24.0232 207.435 23.3086 207.483 22.2222C207.523 21.3037 208.23 20.43 209.264 20.1097C210.663 19.6686 212.175 19.7946 213.484 20.4614C214.16 20.7929 214.605 21.2701 214.536 22.1012C214.535 22.3256 214.546 22.55 214.569 22.7732C214.569 23.1025 214.695 23.2974 215.067 23.2369C215.231 23.2157 215.396 23.2157 215.56 23.2369C215.877 23.2728 215.978 23.1428 215.958 22.8247C215.902 22.1543 215.88 21.4814 215.892 20.8086C215.904 20.6154 215.864 20.4225 215.775 20.2513C215.686 20.0802 215.552 19.9374 215.388 19.8387C214.449 19.1456 213.352 18.7069 212.201 18.564C210.552 18.34 208.945 18.4318 207.501 19.4153C205.24 20.9542 205.225 24.3144 207.864 25.5353C208.747 25.9425 209.667 26.2585 210.611 26.4784C211.576 26.7024 212.544 26.9264 213.396 27.4685C214.173 27.9636 214.677 28.6581 214.633 29.628C214.589 30.598 214.052 31.2364 213.242 31.6217C211.598 32.4058 209.94 32.249 208.291 31.5792C207.611 31.3014 207.239 30.8243 207.27 30.0469C207.261 29.7462 207.23 29.4466 207.175 29.1509C207.16 29.0299 207.175 28.8574 207.008 28.8507C206.66 28.835 206.279 28.7589 205.975 28.8776C205.672 28.9963 205.881 29.3749 205.852 29.6392C205.84 29.881 205.84 30.1233 205.852 30.365C205.872 30.6065 205.872 30.8493 205.852 31.0908C205.746 31.6845 206.041 32.0048 206.513 32.2938C207.755 33.0611 209.176 33.4786 210.629 33.5035C212.066 33.5595 213.434 33.3332 214.666 32.5066C216.758 31.102 216.826 27.6836 214.437 26.3709Z" fill="black"></path><path d="M173.615 30.0558C173.615 29.0657 173.615 29.0791 172.655 29.0859C172.307 29.0859 172.168 29.1799 172.173 29.5585C172.173 30.1902 172.107 30.8242 172.105 31.4559C172.105 31.7875 171.972 31.8569 171.677 31.8547C169.311 31.8547 166.947 31.8412 164.583 31.8547C164.189 31.8547 164.143 31.6979 164.143 31.3618C164.158 30.188 164.143 29.0142 164.143 27.8381C164.143 23.8059 164.142 19.7848 164.129 15.7571C164.129 15.2284 164.31 15.0716 164.77 15.0716C165.026 15.0708 165.283 15.0566 165.538 15.029C166.361 14.9439 166.346 14.9394 166.32 14.0994C166.32 13.797 166.201 13.723 165.928 13.7253C164.203 13.7342 162.48 13.7342 160.757 13.7253C160.451 13.7253 160.339 13.8686 160.409 14.1285C160.48 14.3883 160.127 14.8879 160.713 14.9685C161.13 15.0253 161.549 15.0597 161.97 15.0716C162.41 15.085 162.586 15.2217 162.584 15.7436C162.559 20.9243 162.559 26.1072 162.584 31.2924C162.584 31.7561 162.45 31.9151 162.012 31.9084C161.646 31.9084 161.281 31.9936 160.911 31.9801C160.222 31.9555 160.438 32.4528 160.392 32.8224C160.334 33.2906 160.612 33.2704 160.935 33.2704C162.952 33.2704 164.968 33.2704 166.984 33.2704C169.038 33.2704 171.09 33.2704 173.148 33.2704C173.502 33.2704 173.626 33.1741 173.615 32.7978C173.597 31.8838 173.615 30.9698 173.615 30.0558Z" fill="black"></path><path d="M105.859 18.7454C104.649 18.7701 103.438 18.7454 102.23 18.7454C101.472 18.7454 101.49 18.7454 101.488 19.5362C101.488 19.8789 101.591 19.9842 101.928 19.9842C102.346 19.9842 102.764 20.0559 103.231 20.1007C101.948 23.8372 100.444 27.4551 99.2512 31.2319C98.1087 27.4237 96.5392 23.8395 95.2537 20.0962C95.7401 20.0514 96.1584 19.9797 96.5744 19.9797C97.2612 19.9797 96.9068 19.4645 96.9795 19.171C97.0609 18.8373 96.9002 18.723 96.559 18.723C95.2581 18.7432 93.9571 18.7387 92.654 18.723C92.3326 18.723 92.1014 18.7566 92.1763 19.171C92.2335 19.4981 91.9561 19.9932 92.6385 19.9932C93.1008 19.9932 93.5609 19.9596 93.8052 20.6159C95.3087 24.6482 96.8716 28.6647 98.3927 32.6947C98.549 33.1091 98.7295 33.2951 99.1764 33.2548C99.5792 33.2189 99.8962 33.2749 100.099 32.7283C101.56 28.7969 103.097 24.8879 104.554 20.9564C104.814 20.2553 105.133 19.9081 105.875 19.973C106.535 20.0313 106.267 19.525 106.315 19.2002C106.37 18.8574 106.229 18.7365 105.859 18.7454Z" fill="black"></path><path d="M76.9808 18.5304C75.8482 18.3367 74.6862 18.6055 73.7472 19.2786C73.122 19.7266 72.6927 20.3471 72.1798 20.9676C72.127 20.3628 72.05 19.758 72.0301 19.1509C72.0169 18.8261 71.9025 18.7432 71.6031 18.7477C70.6683 18.7641 69.7335 18.7641 68.7987 18.7477C68.5059 18.7477 68.3584 18.8552 68.4377 19.133C68.5169 19.4107 68.1647 19.8946 68.7415 19.9797C69.1781 20.0521 69.6199 20.0873 70.0622 20.085C70.5025 20.085 70.6103 20.2194 70.6081 20.6585C70.5861 23.4542 70.6081 26.2588 70.6081 29.0478C70.6081 29.8475 70.5949 30.6495 70.6081 31.4515C70.6081 31.7584 70.5289 31.8771 70.2185 31.8838C69.7606 31.895 69.305 31.9689 68.8493 31.9869C68.1889 32.0137 68.5059 32.5088 68.4465 32.8157C68.3871 33.1226 68.5323 33.2637 68.8735 33.2637C70.5597 33.2503 72.2459 33.2637 73.9365 33.2637C74.1742 33.2637 74.423 33.2637 74.3393 32.9255C74.2557 32.5872 74.6497 32.0899 73.9937 32.007C73.5773 31.9453 73.1575 31.9101 72.7368 31.9017C72.2965 31.9017 72.2041 31.7158 72.2063 31.2991C72.2239 28.7454 72.2063 26.1916 72.2063 23.6379C72.2016 23.4153 72.226 23.1931 72.2789 22.977C72.8226 21.0617 74.2469 20.0201 76.2082 20.094C77.2208 20.1321 77.2208 20.1321 77.3088 19.0904C77.3055 19.0531 77.3055 19.0157 77.3088 18.9784C77.3683 18.7006 77.2604 18.5707 76.9808 18.5304Z" fill="black"></path><path d="M152.857 18.5326C151.435 18.3377 150.173 18.658 149.115 19.7086C148.697 20.1461 148.342 20.6416 148.06 21.1804C147.981 20.3739 147.904 19.7467 147.869 19.115C147.853 18.8193 147.743 18.7431 147.468 18.7476C146.662 18.7633 145.854 18.7476 145.047 18.7476C144.239 18.7476 144.344 18.5998 144.305 19.4734C144.287 19.8587 144.397 20.0043 144.785 19.9954C145.172 19.9864 145.515 20.0939 145.885 20.076C146.35 20.0536 146.466 20.2306 146.464 20.6876C146.444 23.9895 146.464 27.2892 146.464 30.5912C146.464 31.8882 146.464 31.8882 145.143 31.9554C144.278 31.998 144.283 32.0047 144.318 32.8873C144.318 33.1337 144.375 33.2592 144.653 33.2569C146.376 33.2569 148.1 33.2569 149.823 33.2569C149.964 33.2569 150.107 33.2771 150.171 33.0755C150.391 32.39 150.129 31.998 149.434 31.9554C149.123 31.9375 148.811 31.8748 148.503 31.886C148.095 31.8994 148.04 31.7001 148.043 31.3416C148.056 28.8618 148.043 26.3797 148.043 23.8999C148.033 23.3863 148.127 22.8761 148.319 22.401C148.511 21.9258 148.796 21.4957 149.158 21.1373C149.52 20.779 149.95 20.4999 150.422 20.3173C150.893 20.1348 151.397 20.0526 151.901 20.076C153.039 20.1074 153.024 20.1051 153.18 18.9559C153.229 18.6423 153.112 18.5684 152.857 18.5326Z" fill="black"></path><path d="M113.857 31.9981C113.416 31.9712 112.976 31.9242 112.536 31.9108C112.175 31.9108 112.058 31.7629 112.063 31.3754C112.087 29.3592 112.063 27.3431 112.063 25.327C112.063 23.3109 112.063 21.2634 112.063 19.2316C112.063 19.0076 112.155 18.7388 111.746 18.7455C110.702 18.7656 109.657 18.7455 108.613 18.7455C108.406 18.7455 108.338 18.8172 108.318 19.0322C108.235 19.8902 108.261 19.9283 109.075 20.0067C109.346 20.0521 109.62 20.0768 109.894 20.0806C110.368 20.0448 110.467 20.2486 110.464 20.6966C110.447 23.9964 110.464 27.2961 110.464 30.5958C110.464 31.8951 110.464 31.8951 109.144 31.9578C108.298 31.9959 108.29 32.0228 108.316 32.8897C108.316 33.1966 108.441 33.2616 108.71 33.2593C110.414 33.2593 112.12 33.2593 113.824 33.2593C114.141 33.2593 114.288 33.1339 114.22 32.8337C114.152 32.5335 114.499 32.034 113.857 31.9981Z" fill="black"></path><path d="M221.796 18.3848C221.796 18.228 221.908 17.995 221.603 17.9547C221.338 17.9188 221.253 18.0801 221.162 18.284C220.942 18.8687 220.693 19.4511 220.416 20.1388C220.128 19.422 219.879 18.8216 219.648 18.2168C219.625 18.1267 219.569 18.0491 219.492 18.0002C219.414 17.9513 219.321 17.935 219.232 17.9547C218.963 17.9816 219.042 18.1787 219.04 18.3333C219.04 19.0217 219.04 19.711 219.04 20.4009C219.04 20.5443 218.961 20.7705 219.238 20.7616C219.516 20.7526 219.432 20.5376 219.434 20.383C219.434 19.935 219.434 19.4869 219.434 19.0389C219.717 19.4867 219.955 19.9625 220.143 20.4592C220.196 20.5846 220.216 20.7638 220.418 20.7549C220.621 20.7459 220.638 20.5689 220.682 20.4435C220.883 19.9798 221.074 19.5116 221.268 19.0434C221.343 19.4932 221.374 19.9494 221.36 20.4054C221.36 20.5667 221.323 20.7638 221.58 20.7549C221.838 20.7459 221.774 20.5308 221.776 20.3875C221.805 19.7244 221.809 19.0546 221.796 18.3848Z" fill="black"></path><path d="M110.927 14.6393C112.078 14.6393 112.078 14.6572 112.078 13.4901C112.078 12.3566 112.078 12.3566 111.358 12.3566C110.478 12.3566 110.478 12.3566 110.478 13.2728C110.478 13.5707 110.495 13.8687 110.478 14.1688C110.434 14.525 110.561 14.6393 110.927 14.6393Z" fill="black"></path><path d="M218.351 17.9547C217.896 17.9547 217.44 17.9547 216.982 17.9547C216.861 17.9547 216.705 17.9278 216.685 18.1137C216.663 18.3377 216.846 18.3377 216.982 18.322C217.473 18.2369 217.526 18.5169 217.493 18.9045C217.475 19.1061 217.493 19.3122 217.493 19.516C217.493 19.8319 217.493 20.1477 217.493 20.4614C217.493 20.6092 217.475 20.7705 217.713 20.7683C217.951 20.766 217.933 20.6025 217.933 20.4546C217.933 19.917 217.953 19.3794 217.933 18.8417C217.918 18.4788 217.995 18.266 218.406 18.322C218.527 18.34 218.684 18.3444 218.692 18.1563C218.673 17.9233 218.49 17.9547 218.351 17.9547Z" fill="black"></path></g><defs><clipPath id="clip0_1699_56058"><rect width="221.814" height="33.7543" fill="white"></rect></clipPath></defs></svg>